<mxfile host="app.diagrams.net" agent="Mozilla/5.0 (Macintosh; Intel Mac OS X 10_15_7) AppleWebKit/605.1.15 (KHTML, like Gecko) Version/18.1.1 Safari/605.1.15" version="26.0.3">
  <diagram name="Page-1" id="J86YOnv-guk3V2KlRrd4">
    <mxGraphModel dx="984" dy="1864" grid="1" gridSize="10" guides="1" tooltips="1" connect="1" arrows="1" fold="1" page="1" pageScale="1" pageWidth="827" pageHeight="1169" math="0" shadow="0">
      <root>
        <mxCell id="0" />
        <mxCell id="1" parent="0" />
        <mxCell id="4JXuVp3Vluo4T6xKa9MZ-11" style="edgeStyle=orthogonalEdgeStyle;rounded=0;orthogonalLoop=1;jettySize=auto;html=1;exitX=0.5;exitY=0.5;exitDx=0;exitDy=0;exitPerimeter=0;entryX=0;entryY=0.5;entryDx=0;entryDy=0;" parent="1" source="4JXuVp3Vluo4T6xKa9MZ-1" target="4JXuVp3Vluo4T6xKa9MZ-9" edge="1">
          <mxGeometry relative="1" as="geometry" />
        </mxCell>
        <mxCell id="4JXuVp3Vluo4T6xKa9MZ-1" value="Phòng đào tạo" style="shape=umlActor;verticalLabelPosition=bottom;verticalAlign=top;html=1;" parent="1" vertex="1">
          <mxGeometry x="30" y="170" width="30" height="60" as="geometry" />
        </mxCell>
        <mxCell id="4JXuVp3Vluo4T6xKa9MZ-4" value="Sinh viên" style="html=1;whiteSpace=wrap;" parent="1" vertex="1">
          <mxGeometry x="280" y="80" width="110" height="50" as="geometry" />
        </mxCell>
        <mxCell id="4JXuVp3Vluo4T6xKa9MZ-5" value="QL khoa" style="html=1;whiteSpace=wrap;" parent="1" vertex="1">
          <mxGeometry x="280" y="280" width="110" height="50" as="geometry" />
        </mxCell>
        <mxCell id="4JXuVp3Vluo4T6xKa9MZ-13" style="edgeStyle=orthogonalEdgeStyle;rounded=0;orthogonalLoop=1;jettySize=auto;html=1;entryX=0;entryY=0.5;entryDx=0;entryDy=0;" parent="1" source="4JXuVp3Vluo4T6xKa9MZ-9" target="4JXuVp3Vluo4T6xKa9MZ-5" edge="1">
          <mxGeometry relative="1" as="geometry" />
        </mxCell>
        <mxCell id="4JXuVp3Vluo4T6xKa9MZ-22" style="edgeStyle=orthogonalEdgeStyle;rounded=0;orthogonalLoop=1;jettySize=auto;html=1;entryX=0.5;entryY=1;entryDx=0;entryDy=0;" parent="1" source="4JXuVp3Vluo4T6xKa9MZ-9" target="4JXuVp3Vluo4T6xKa9MZ-21" edge="1">
          <mxGeometry relative="1" as="geometry" />
        </mxCell>
        <mxCell id="4JXuVp3Vluo4T6xKa9MZ-9" value="Quản lý" style="shape=rhombus;perimeter=rhombusPerimeter;whiteSpace=wrap;html=1;align=center;" parent="1" vertex="1">
          <mxGeometry x="120" y="170" width="80" height="60" as="geometry" />
        </mxCell>
        <mxCell id="4JXuVp3Vluo4T6xKa9MZ-12" style="edgeStyle=orthogonalEdgeStyle;rounded=0;orthogonalLoop=1;jettySize=auto;html=1;exitX=1;exitY=0.5;exitDx=0;exitDy=0;entryX=0;entryY=0.5;entryDx=0;entryDy=0;" parent="1" source="4JXuVp3Vluo4T6xKa9MZ-9" target="4JXuVp3Vluo4T6xKa9MZ-4" edge="1">
          <mxGeometry relative="1" as="geometry">
            <mxPoint x="55" y="210" as="sourcePoint" />
            <mxPoint x="130" y="210" as="targetPoint" />
          </mxGeometry>
        </mxCell>
        <mxCell id="4JXuVp3Vluo4T6xKa9MZ-14" value="Thông tin sinh viên" style="ellipse;whiteSpace=wrap;html=1;" parent="1" vertex="1">
          <mxGeometry x="480" y="-30" width="140" height="70" as="geometry" />
        </mxCell>
        <mxCell id="4JXuVp3Vluo4T6xKa9MZ-15" value="" style="html=1;verticalAlign=bottom;endArrow=block;curved=0;rounded=0;entryX=0.057;entryY=0.743;entryDx=0;entryDy=0;entryPerimeter=0;" parent="1" target="4JXuVp3Vluo4T6xKa9MZ-14" edge="1">
          <mxGeometry width="80" relative="1" as="geometry">
            <mxPoint x="390" y="104.5" as="sourcePoint" />
            <mxPoint x="470" y="104.5" as="targetPoint" />
            <mxPoint as="offset" />
          </mxGeometry>
        </mxCell>
        <mxCell id="4JXuVp3Vluo4T6xKa9MZ-16" value="" style="html=1;verticalAlign=bottom;endArrow=block;curved=0;rounded=0;entryX=0;entryY=0.5;entryDx=0;entryDy=0;exitX=1;exitY=0.5;exitDx=0;exitDy=0;" parent="1" source="4JXuVp3Vluo4T6xKa9MZ-4" target="4JXuVp3Vluo4T6xKa9MZ-17" edge="1">
          <mxGeometry width="80" relative="1" as="geometry">
            <mxPoint x="400" y="114.5" as="sourcePoint" />
            <mxPoint x="498" y="32" as="targetPoint" />
            <mxPoint as="offset" />
          </mxGeometry>
        </mxCell>
        <mxCell id="4JXuVp3Vluo4T6xKa9MZ-17" value="Điểm sinh viên" style="ellipse;whiteSpace=wrap;html=1;" parent="1" vertex="1">
          <mxGeometry x="480" y="70" width="140" height="70" as="geometry" />
        </mxCell>
        <mxCell id="4JXuVp3Vluo4T6xKa9MZ-21" value="Tài Khoản" style="html=1;whiteSpace=wrap;" parent="1" vertex="1">
          <mxGeometry x="105" y="-40" width="110" height="50" as="geometry" />
        </mxCell>
        <mxCell id="4JXuVp3Vluo4T6xKa9MZ-23" value="" style="html=1;verticalAlign=bottom;endArrow=block;curved=0;rounded=0;entryX=0;entryY=1;entryDx=0;entryDy=0;" parent="1" target="4JXuVp3Vluo4T6xKa9MZ-24" edge="1">
          <mxGeometry width="80" relative="1" as="geometry">
            <mxPoint x="160" y="-40" as="sourcePoint" />
            <mxPoint x="258" y="-122.5" as="targetPoint" />
            <mxPoint as="offset" />
          </mxGeometry>
        </mxCell>
        <mxCell id="4JXuVp3Vluo4T6xKa9MZ-24" value="Thêm, sửa, xoá" style="ellipse;whiteSpace=wrap;html=1;" parent="1" vertex="1">
          <mxGeometry x="230" y="-190" width="140" height="70" as="geometry" />
        </mxCell>
        <mxCell id="4JXuVp3Vluo4T6xKa9MZ-25" value="Thông tin QL khoa" style="ellipse;whiteSpace=wrap;html=1;" parent="1" vertex="1">
          <mxGeometry x="480" y="280" width="140" height="70" as="geometry" />
        </mxCell>
        <mxCell id="4JXuVp3Vluo4T6xKa9MZ-26" value="" style="html=1;verticalAlign=bottom;endArrow=block;curved=0;rounded=0;entryX=0;entryY=0.5;entryDx=0;entryDy=0;exitX=0.999;exitY=0.706;exitDx=0;exitDy=0;exitPerimeter=0;" parent="1" source="4JXuVp3Vluo4T6xKa9MZ-5" target="4JXuVp3Vluo4T6xKa9MZ-25" edge="1">
          <mxGeometry width="80" relative="1" as="geometry">
            <mxPoint x="390" y="314.5" as="sourcePoint" />
            <mxPoint x="470" y="314.5" as="targetPoint" />
            <mxPoint as="offset" />
          </mxGeometry>
        </mxCell>
        <mxCell id="4JXuVp3Vluo4T6xKa9MZ-31" value="" style="html=1;verticalAlign=bottom;endArrow=block;curved=0;rounded=0;" parent="1" target="4JXuVp3Vluo4T6xKa9MZ-32" edge="1">
          <mxGeometry width="80" relative="1" as="geometry">
            <mxPoint x="160" y="-40" as="sourcePoint" />
            <mxPoint x="130" y="-120" as="targetPoint" />
            <mxPoint as="offset" />
          </mxGeometry>
        </mxCell>
        <mxCell id="4JXuVp3Vluo4T6xKa9MZ-32" value="Thống kê" style="ellipse;whiteSpace=wrap;html=1;" parent="1" vertex="1">
          <mxGeometry x="50" y="-190" width="140" height="70" as="geometry" />
        </mxCell>
        <mxCell id="4JXuVp3Vluo4T6xKa9MZ-33" value="" style="html=1;verticalAlign=bottom;endArrow=block;curved=0;rounded=0;exitX=0.5;exitY=0;exitDx=0;exitDy=0;entryX=0.382;entryY=1;entryDx=0;entryDy=0;entryPerimeter=0;" parent="1" source="4JXuVp3Vluo4T6xKa9MZ-9" target="4JXuVp3Vluo4T6xKa9MZ-34" edge="1">
          <mxGeometry width="80" relative="1" as="geometry">
            <mxPoint x="170" y="-30" as="sourcePoint" />
            <mxPoint x="270" y="40" as="targetPoint" />
            <mxPoint as="offset" />
          </mxGeometry>
        </mxCell>
        <mxCell id="4JXuVp3Vluo4T6xKa9MZ-34" value="Môn học" style="html=1;whiteSpace=wrap;" parent="1" vertex="1">
          <mxGeometry x="260" y="-40" width="110" height="50" as="geometry" />
        </mxCell>
        <mxCell id="4JXuVp3Vluo4T6xKa9MZ-35" value="" style="html=1;verticalAlign=bottom;endArrow=block;curved=0;rounded=0;exitX=0.5;exitY=0;exitDx=0;exitDy=0;" parent="1" source="4JXuVp3Vluo4T6xKa9MZ-34" target="4JXuVp3Vluo4T6xKa9MZ-32" edge="1">
          <mxGeometry width="80" relative="1" as="geometry">
            <mxPoint x="170" y="-30" as="sourcePoint" />
            <mxPoint x="230" y="-111" as="targetPoint" />
            <mxPoint as="offset" />
          </mxGeometry>
        </mxCell>
        <mxCell id="4JXuVp3Vluo4T6xKa9MZ-36" value="" style="html=1;verticalAlign=bottom;endArrow=block;curved=0;rounded=0;entryX=0.714;entryY=1;entryDx=0;entryDy=0;entryPerimeter=0;exitX=0.5;exitY=0;exitDx=0;exitDy=0;" parent="1" source="4JXuVp3Vluo4T6xKa9MZ-34" target="4JXuVp3Vluo4T6xKa9MZ-24" edge="1">
          <mxGeometry width="80" relative="1" as="geometry">
            <mxPoint x="170" y="-30" as="sourcePoint" />
            <mxPoint x="230" y="-111" as="targetPoint" />
            <mxPoint as="offset" />
          </mxGeometry>
        </mxCell>
      </root>
    </mxGraphModel>
  </diagram>
</mxfile>
